#!OML:ASF E:\emotionWalksFemale\Project 1\Capture day 1\Session 1\Female1.ASF
:FULLY-SPECIFIED
:DEGREES
1018
root 10.1298 15.0913 -7.1305 180.09 -4.85996 -177.047
lowerback 6.59676 0.0877881 0.833842
upperback -0.179824 0.175616 3.65968
thorax -3.8986 0.0423664 3.31351
lowerneck -0.994978 -3.24005 -8.44297
upperneck 26.8029 -18.3159 24.5981
head 12.2139 -9.53224 8.37799
rclavicle -9.88954e-015 1.19271e-014
rhumerus -34.5747 2.07224 -81.8295
rradius 28.256
rwrist 21.9036
rhand -4.83428 -50.7624
rfingers 7.12502
rthumb 20.9526 -79.6507
lclavicle -9.88954e-015 1.19271e-014
lhumerus -36.4925 1.41071 88.0886
lradius 31.6256
lwrist -17.5734
lhand -3.74827 -35.7356
lfingers 7.12502
lthumb 21.9957 -6.96626
rfemur 3.75934 16.3619 33.4195
rtibia 25.7631
rfoot -20.8418 -25.2298
rtoes 8.00339
lfemur -35.8622 -23.476 -10.4053
ltibia 28.5851
lfoot -18.4531 14.2123
ltoes -20.467
1019
root 10.109 15.094 -7.23009 180.233 -4.67833 -177.115
lowerback 6.4713 0.11962 0.703499
upperback -0.208325 0.209536 3.62382
thorax -3.85974 0.0638028 3.34554
lowerneck -1.09644 -3.24088 -8.4015
upperneck 26.8453 -18.1796 24.4058
head 12.1883 -9.45109 8.3059
rclavicle 3.08116e-015 4.77083e-015
rhumerus -34.736 2.63165 -82.1068
rradius 28.252
rwrist 21.6723
rhand -5.28457 -50.4638
rfingers 7.12502
rthumb 20.52 -79.3993
lclavicle 3.08116e-015 4.77083e-015
lhumerus -36.8439 2.05471 87.6149
lradius 31.5834
lwrist -17.9271
lhand -3.11125 -35.5935
lfingers 7.12502
lthumb 22.6072 -6.8974
rfemur 4.09084 16.5258 33.365
rtibia 25.585
rfoot -21.0954 -25.0889
rtoes 8.12708
lfemur -35.7195 -23.5061 -10.5528
ltibia 28.5481
lfoot -18.3473 14.397
ltoes -19.9423
1020
root 10.0885 15.0856 -7.32399 180.428 -4.50017 -177.048
lowerback 6.46683 0.172328 0.696952
upperback -0.280799 0.283616 3.61846
thorax -3.93646 0.10239 3.33712
lowerneck -1.49125 -3.30004 -8.3997
upperneck 27.0242 -18.2023 24.2358
head 12.3312 -9.42047 8.22021
rclavicle 1.03368e-014 -2.38542e-015
rhumerus -34.9143 3.25572 -82.4382
rradius 28.3228
rwrist 21.2354
rhand -5.55352 -50.4813
rfingers 7.12502
rthumb 20.2615 -79.4445
lclavicle 1.03368e-014 -2.38542e-015
lhumerus -37.1493 2.57458 87.1663
lradius 31.4533
lwrist -18.2724
lhand -2.78437 -35.5944
lfingers 7.12502
lthumb 22.9209 -6.93681
rfemur 4.36414 16.761 33.4567
rtibia 25.4294
rfoot -21.1975 -25.0181
rtoes 9.10616
lfemur -35.67 -23.3264 -10.5992
ltibia 28.6031
lfoot -18.196 14.2327
ltoes -19.2483
1021
root 10.062 15.0693 -7.41899 180.583 -4.34305 -176.994
lowerback 6.52809 0.232575 0.818979
upperback -0.405576 0.381244 3.58143
thorax -4.10464 0.150718 3.22131
lowerneck -1.61351 -3.33537 -8.5552
upperneck 27.1201 -18.2631 24.2265
head 12.4257 -9.45233 8.23692
rclavicle 1.39646e-014 5.08889e-014
rhumerus -35.1618 3.53387 -82.6274
rradius 28.351
rwrist 20.9173
rhand -5.62443 -50.717
rfingers 7.12502
rthumb 20.1934 -79.6874
lclavicle 1.39646e-014 5.08889e-014
lhumerus -37.5739 2.76224 86.8824
lradius 31.3474
lwrist -18.3119
lhand -2.97952 -35.5307
lfingers 7.12502
lthumb 22.7336 -6.85001
rfemur 4.72642 16.6927 33.4656
rtibia 25.2919
rfoot -21.1342 -24.8695
rtoes 9.92046
lfemur -35.5653 -23.217 -10.702
ltibia 28.7155
lfoot -18.3559 13.7798
ltoes -16.3214
1022
root 10.0333 15.0582 -7.52071 180.658 -4.17181 -177.015
lowerback 6.45551 0.277801 0.850127
upperback -0.414114 0.443627 3.52642
thorax -4.07489 0.181873 3.13958
lowerneck -1.66994 -3.36107 -8.51191
upperneck 27.0669 -18.1635 24.1094
head 12.37 -9.38947 8.18814
rclavicle 4.42296e-015 -5.24792e-014
rhumerus -35.3007 3.56406 -82.685
rradius 28.3683
rwrist 21.2005
rhand -5.16996 -50.9003
rfingers 7.12502
rthumb 20.6301 -79.8239
lclavicle 4.42296e-015 -5.24792e-014
lhumerus -37.9843 2.92825 86.5958
lradius 31.355
lwrist -18.221
lhand -2.97636 -35.3667
lfingers 7.12502
lthumb 22.7367 -6.68638
rfemur 5.18913 16.5375 33.3917
rtibia 25.1239
rfoot -21.0337 -24.7399
rtoes 9.52214
lfemur -35.2612 -23.0195 -11.0186
ltibia 28.8832
lfoot -18.1366 13.2748
ltoes -15.3184
